<?xml version="1.0" encoding="utf-8"?>
<!-- Generator: Adobe Illustrator 18.1.1, SVG Export Plug-In . SVG Version: 6.00 Build 0)  -->
<svg version="1.1" id="Layer_1" xmlns="http://www.w3.org/2000/svg" xmlns:xlink="http://www.w3.org/1999/xlink" x="0px" y="0px"
	 viewBox="0 0 106.9 32" enable-background="new 0 0 106.9 32" xml:space="preserve">
<g>
	
		<image overflow="visible" opacity="0.3" width="33" height="29" xlink:href="A1E76860.png"  transform="matrix(1 0 0 1 34.4872 2.5321)">
	</image>
	<g>
		<g>
			<path fill="#FFFFFF" d="M37.2,14.6c0,1.7,0.6,3.2,1.8,4.6c1.2,1.4,2.8,2.5,4.9,3.3c2.1,0.8,4.3,1.2,6.7,1.2c0.7,0,1.4,0,2.2-0.1
				c0,0,1.1,0.5,3,1.8c1.1,0.8,1.9,1.6,2.6,2.4c-0.1-1.1,0-1.7-0.2-3.4c-0.1-1.2-0.3-2.2-0.3-2.2c1.6-0.9,3.9-2.4,4.8-3.6
				c0.9-1.2,1.3-2.6,1.4-4c0-1.2-0.4-2.4-1.1-3.5S61.2,8.9,60,8.1c-1.2-0.8-2.6-1.5-4.3-1.9c-1.7-0.5-3.4-0.7-5.2-0.7
				c-2.4,0-4.7,0.4-6.7,1.2c-2,0.8-3.7,1.9-4.9,3.3C37.8,11.4,37.2,12.9,37.2,14.6z"/>
		</g>
	</g>
</g>
<g>
	
		<image overflow="visible" opacity="0.3" width="28" height="31" xlink:href="A1E76861.png"  transform="matrix(1 0 0 1 72.4872 0.5321)">
	</image>
	<g>
		<g>
			<path fill="#FFFFFF" d="M81.2,6.3l15.1-2.9v17.8c0,0.7-0.2,1.4-0.8,2.1c-0.6,0.7-1.4,1.2-2.4,1.5c-1.2,0.4-2.2,0.5-3.1,0.2
				c-0.9-0.3-1.5-0.8-1.8-1.6c-0.3-0.8-0.2-1.6,0.2-2.5c0.5-0.8,1.3-1.4,2.4-1.8c1-0.3,2-0.4,3-0.3V9.2l-10,2.1v12.4
				c0,0.7-0.3,1.4-0.9,2.1c-0.6,0.7-1.4,1.2-2.4,1.5c-1.2,0.4-2.2,0.4-3.1,0.2c-0.8-0.3-1.4-0.8-1.7-1.6c-0.3-0.8-0.3-1.6,0.2-2.5
				c0.5-0.8,1.2-1.4,2.4-1.8c1-0.3,2-0.4,3-0.3V6.3z"/>
		</g>
	</g>
</g>
<g>
	
		<image overflow="visible" opacity="0.3" width="31" height="31" xlink:href="A1E76867.png"  transform="matrix(1 0 0 1 0.4872 0.5321)">
	</image>
	<g>
		<g>
			<g>
				<path fill="#FFFFFF" d="M3.4,9.8c0.2,1,0.7,1.8,1.4,2.5c0.7,0.7,1.4,1.1,2.3,1.4c0.9,0.2,1.7,0.2,2.6,0c3.1,2.2,5.6,4.8,7.8,7.8
					c-0.3,0.9-0.3,1.8-0.1,2.7c0.2,0.9,0.7,1.8,1.3,2.4c0.7,0.7,1.5,1.2,2.5,1.4c0.9,0.2,1.9,0.2,2.7-0.1L21,24.9l0.1-2.1l1.1-1.1
					l2.1-0.1l2.9,2.9c0.3-0.9,0.3-1.8,0.1-2.8c-0.2-1-0.7-1.8-1.4-2.5c-0.7-0.8-1.6-1.2-2.7-1.4c-1-0.2-2-0.1-2.9,0.3
					c-2.7-2-5.1-4.5-7.2-7.6c0.4-0.9,0.5-1.9,0.3-3c-0.2-1-0.7-1.9-1.4-2.7c-0.7-0.7-1.5-1.2-2.5-1.4C8.6,3.3,7.7,3.3,6.8,3.6
					l2.9,2.9L9.6,8.7L8.5,9.8L6.4,9.9L3.6,7C3.3,7.9,3.2,8.8,3.4,9.8L3.4,9.8z M3.4,9.8"/>
			</g>
		</g>
	</g>
</g>
</svg>
